<svg width="160" height="160" viewBox="0 0 160 160" fill="none" xmlns="http://www.w3.org/2000/svg">
  <defs>
    <linearGradient id="bg" x1="22" y1="16" x2="136" y2="148" gradientUnits="userSpaceOnUse">
      <stop stop-color="#132F4C"/>
      <stop offset="1" stop-color="#08111D"/>
    </linearGradient>
    <linearGradient id="line" x1="34" y1="34" x2="126" y2="126" gradientUnits="userSpaceOnUse">
      <stop stop-color="#79D6FF"/>
      <stop offset="1" stop-color="#2CB5FF"/>
    </linearGradient>
    <linearGradient id="accent" x1="92" y1="42" x2="118" y2="88" gradientUnits="userSpaceOnUse">
      <stop stop-color="#FFD767"/>
      <stop offset="1" stop-color="#FF9E2C"/>
    </linearGradient>
    <pattern id="grid" width="14" height="14" patternUnits="userSpaceOnUse">
      <path d="M14 0H0V14" stroke="#7FB5D8" stroke-opacity="0.12"/>
    </pattern>
    <filter id="shadow" x="18" y="18" width="124" height="124" filterUnits="userSpaceOnUse" color-interpolation-filters="sRGB">
      <feDropShadow dx="0" dy="10" stdDeviation="10" flood-color="#050A12" flood-opacity="0.35"/>
    </filter>
  </defs>

  <g filter="url(#shadow)">
    <rect x="22" y="22" width="116" height="116" rx="28" fill="url(#bg)"/>
    <rect x="22" y="22" width="116" height="116" rx="28" fill="url(#grid)"/>
  </g>

  <path d="M46 116V48H114" stroke="url(#line)" stroke-width="5" stroke-linecap="round" stroke-linejoin="round"/>
  <path d="M54 104L72 86L87 91L109 68" stroke="url(#line)" stroke-width="6" stroke-linecap="round" stroke-linejoin="round"/>
  <path d="M42 56L46 48L54 52" stroke="url(#line)" stroke-width="4" stroke-linecap="round" stroke-linejoin="round"/>
  <path d="M106 64L114 68L110 76" stroke="url(#line)" stroke-width="4" stroke-linecap="round" stroke-linejoin="round"/>

  <circle cx="72" cy="86" r="6" fill="#08111D" stroke="#7DE1FF" stroke-width="3"/>
  <circle cx="87" cy="91" r="6" fill="#08111D" stroke="#7DE1FF" stroke-width="3"/>
  <circle cx="109" cy="68" r="6" fill="#08111D" stroke="#7DE1FF" stroke-width="3"/>

  <rect x="87" y="42" width="31" height="36" rx="9" fill="#0D2035" stroke="#244766"/>
  <rect x="94" y="49" width="18" height="5" rx="2.5" fill="url(#accent)"/>
  <rect x="94" y="59" width="14" height="4" rx="2" fill="#8DB7D9"/>
  <rect x="94" y="67" width="10" height="4" rx="2" fill="#6A91B2"/>
</svg>
